HIERARCHY
ROOT Hips
{
    OFFSET   0.000000   0.000000   0.000000
    CHANNELS 6 Xposition Yposition Zposition Zrotation Xrotation Yrotation
    JOINT Chest
    {
        OFFSET   0.000000   8.007230   0.000000
        CHANNELS 3 Zrotation Xrotation Yrotation
        JOINT Chest2
        {
            OFFSET   0.000000  22.077100   0.000000
            CHANNELS 3 Zrotation Xrotation Yrotation
            JOINT Neck
            {
                OFFSET   0.000000  23.254700   0.000000
                CHANNELS 3 Zrotation Xrotation Yrotation
                JOINT Head
                {
                    OFFSET   0.000010  14.370000   1.956610
                    CHANNELS 3 Zrotation Xrotation Yrotation
                    End Site
                    {
                        OFFSET   0.000000  19.566000   0.000000
                    }
                }
            }
            JOINT LeftCollar
            {
                OFFSET   3.911900  19.017000  -0.467063
                CHANNELS 3 Zrotation Xrotation Yrotation
                JOINT LeftShoulder
                {
                    OFFSET  10.383700   0.000000   0.000000
                    CHANNELS 3 Zrotation Xrotation Yrotation
                    JOINT LeftElbow
                    {
                        OFFSET  26.662100   0.001671   0.000522
                        CHANNELS 3 Zrotation Xrotation Yrotation
                        JOINT LeftWrist
                        {
                            OFFSET  28.869000   0.000037  -0.000114
                            CHANNELS 3 Zrotation Xrotation Yrotation
                            JOINT LeftFinger0
                            {
                                OFFSET   2.044650  -2.323450   3.252850
                                CHANNELS 3 Zrotation Xrotation Yrotation
                                JOINT LeftFinger01
                                {
                                    OFFSET   3.088140   0.000000   0.000000
                                    CHANNELS 3 Zrotation Xrotation Yrotation
                                    JOINT LeftFinger02
                                    {
                                        OFFSET   2.639460   0.000000   0.000000
                                        CHANNELS 3 Zrotation Xrotation Yrotation
                                        End Site
                                        {
                                            OFFSET   2.582190   0.000000   0.000000
                                        }
                                    }
                                }
                            }
                            JOINT LeftFinger1
                            {
                                OFFSET   8.364480   0.000000   3.252850
                                CHANNELS 3 Zrotation Xrotation Yrotation
                                JOINT LeftFinger11
                                {
                                    OFFSET   4.646930   0.000000   0.000000
                                    CHANNELS 3 Zrotation Xrotation Yrotation
                                    JOINT LeftFinger12
                                    {
                                        OFFSET   2.323470   0.000000   0.000000
                                        CHANNELS 3 Zrotation Xrotation Yrotation
                                        End Site
                                        {
                                            OFFSET   2.273050   0.000000   0.000000
                                        }
                                    }
                                }
                            }
                            JOINT LeftFinger2
                            {
                                OFFSET   8.364490   0.000016   1.078090
                                CHANNELS 3 Zrotation Xrotation Yrotation
                                JOINT LeftFinger21
                                {
                                    OFFSET   5.111620   0.000000   0.000000
                                    CHANNELS 3 Zrotation Xrotation Yrotation
                                    JOINT LeftFinger22
                                    {
                                        OFFSET   2.788150   0.000013   0.000000
                                        CHANNELS 3 Zrotation Xrotation Yrotation
                                        End Site
                                        {
                                            OFFSET   2.727660   0.000000   0.000000
                                        }
                                    }
                                }
                            }
                            JOINT LeftFinger3
                            {
                                OFFSET   7.899780   0.000016  -1.078090
                                CHANNELS 3 Zrotation Xrotation Yrotation
                                JOINT LeftFinger31
                                {
                                    OFFSET   4.646930   0.000000   0.000000
                                    CHANNELS 3 Zrotation Xrotation Yrotation
                                    JOINT LeftFinger32
                                    {
                                        OFFSET   2.323470   0.000000   0.000000
                                        CHANNELS 3 Zrotation Xrotation Yrotation
                                        End Site
                                        {
                                            OFFSET   2.273050   0.000000   0.000000
                                        }
                                    }
                                }
                            }
                            JOINT LeftFinger4
                            {
                                OFFSET   7.435080   0.000000  -3.252850
                                CHANNELS 3 Zrotation Xrotation Yrotation
                                JOINT LeftFinger41
                                {
                                    OFFSET   3.717550   0.000000   0.000000
                                    CHANNELS 3 Zrotation Xrotation Yrotation
                                    JOINT LeftFinger42
                                    {
                                        OFFSET   1.858760   0.000000   0.000000
                                        CHANNELS 3 Zrotation Xrotation Yrotation
                                        End Site
                                        {
                                            OFFSET   1.818440   0.000000   0.000000
                                        }
                                    }
                                }
                            }
                        }
                    }
                }
            }
            JOINT RightCollar
            {
                OFFSET  -3.911900  19.017000  -0.467064
                CHANNELS 3 Zrotation Xrotation Yrotation
                JOINT RightShoulder
                {
                    OFFSET -10.383700   0.000000   0.000000
                    CHANNELS 3 Zrotation Xrotation Yrotation
                    JOINT RightElbow
                    {
                        OFFSET -26.662100   0.001633   0.000260
                        CHANNELS 3 Zrotation Xrotation Yrotation
                        JOINT RightWrist
                        {
                            OFFSET -28.869000  -0.000045  -0.000080
                            CHANNELS 3 Zrotation Xrotation Yrotation
                            JOINT RightFinger0
                            {
                                OFFSET  -2.044660  -2.323490   3.252850
                                CHANNELS 3 Zrotation Xrotation Yrotation
                                JOINT RightFinger01
                                {
                                    OFFSET  -3.088140   0.000000   0.000000
                                    CHANNELS 3 Zrotation Xrotation Yrotation
                                    JOINT RightFinger02
                                    {
                                        OFFSET  -2.639450   0.000000   0.000000
                                        CHANNELS 3 Zrotation Xrotation Yrotation
                                        End Site
                                        {
                                            OFFSET  -2.582190   0.000000   0.000000
                                        }
                                    }
                                }
                            }
                            JOINT RightFinger1
                            {
                                OFFSET  -8.364480   0.000000   3.252850
                                CHANNELS 3 Zrotation Xrotation Yrotation
                                JOINT RightFinger11
                                {
                                    OFFSET  -4.646920   0.000000   0.000000
                                    CHANNELS 3 Zrotation Xrotation Yrotation
                                    JOINT RightFinger12
                                    {
                                        OFFSET  -2.323470   0.000000   0.000000
                                        CHANNELS 3 Zrotation Xrotation Yrotation
                                        End Site
                                        {
                                            OFFSET  -2.273050   0.000000   0.000000
                                        }
                                    }
                                }
                            }
                            JOINT RightFinger2
                            {
                                OFFSET  -8.364480   0.000000   1.078090
                                CHANNELS 3 Zrotation Xrotation Yrotation
                                JOINT RightFinger21
                                {
                                    OFFSET  -5.111610   0.000000   0.000000
                                    CHANNELS 3 Zrotation Xrotation Yrotation
                                    JOINT RightFinger22
                                    {
                                        OFFSET  -2.788160   0.000000   0.000000
                                        CHANNELS 3 Zrotation Xrotation Yrotation
                                        End Site
                                        {
                                            OFFSET  -2.727660   0.000000   0.000000
                                        }
                                    }
                                }
                            }
                            JOINT RightFinger3
                            {
                                OFFSET  -7.899780   0.000000  -1.078090
                                CHANNELS 3 Zrotation Xrotation Yrotation
                                JOINT RightFinger31
                                {
                                    OFFSET  -4.646930   0.000000   0.000000
                                    CHANNELS 3 Zrotation Xrotation Yrotation
                                    JOINT RightFinger32
                                    {
                                        OFFSET  -2.323470   0.000000   0.000000
                                        CHANNELS 3 Zrotation Xrotation Yrotation
                                        End Site
                                        {
                                            OFFSET  -2.273050   0.000000   0.000000
                                        }
                                    }
                                }
                            }
                            JOINT RightFinger4
                            {
                                OFFSET  -7.435090   0.000000  -3.252850
                                CHANNELS 3 Zrotation Xrotation Yrotation
                                JOINT RightFinger41
                                {
                                    OFFSET  -3.717550   0.000000   0.000000
                                    CHANNELS 3 Zrotation Xrotation Yrotation
                                    JOINT RightFinger42
                                    {
                                        OFFSET  -1.858760   0.000000   0.000000
                                        CHANNELS 3 Zrotation Xrotation Yrotation
                                        End Site
                                        {
                                            OFFSET  -1.818440   0.000000   0.000000
                                        }
                                    }
                                }
                            }
                        }
                    }
                }
            }
        }
    }
    JOINT LeftHip
    {
        OFFSET   9.782990   0.000000   0.000000
        CHANNELS 3 Zrotation Xrotation Yrotation
        JOINT LeftKnee
        {
            OFFSET  -0.000063 -41.789100   0.001657
            CHANNELS 3 Zrotation Xrotation Yrotation
            JOINT LeftAnkle
            {
                OFFSET   0.000078 -41.133200  -0.000113
                CHANNELS 3 Zrotation Xrotation Yrotation
                JOINT LeftToe
                {
                    OFFSET   0.000000  -6.358970  14.674500
                    CHANNELS 3 Zrotation Xrotation Yrotation
                    End Site
                    {
                        OFFSET   0.000000   0.000000   3.913200
                    }
                }
            }
        }
    }
    JOINT RightHip
    {
        OFFSET  -9.782990   0.000000   0.000000
        CHANNELS 3 Zrotation Xrotation Yrotation
        JOINT RightKnee
        {
            OFFSET   0.000053 -41.789200   0.000277
            CHANNELS 3 Zrotation Xrotation Yrotation
            JOINT RightAnkle
            {
                OFFSET   0.000030 -41.133200  -0.000150
                CHANNELS 3 Zrotation Xrotation Yrotation
                JOINT RightToe
                {
                    OFFSET   0.000000  -6.358960  14.674500
                    CHANNELS 3 Zrotation Xrotation Yrotation
                    End Site
                    {
                        OFFSET   0.000000   0.000000   3.913200
                    }
                }
            }
        }
    }
}
MOTION
Frames: 4
Frame Time:   0.016667
  0.318286  89.538900  -1.348190  -0.656707  -5.382170   5.386800  -0.932014   4.576510   3.355480  -2.142300   9.089590   6.817860   1.411870  -0.835015   0.020905   2.320790  -1.690110  -1.367660  -9.211050  -1.001480  -5.891440 -68.773600  15.507500  -9.182440  -0.549340  -0.613710  -9.019130   6.516260  -8.090820   3.936840  42.142500  30.949400 -60.011700 -25.434600   0.003690   0.001843  -7.717310  -0.000610   0.000131 -36.589400   2.217730  -2.983830 -29.984200  -0.002680   0.001845 -20.988900  -0.000388   0.002344 -28.597800  -0.892597   1.636070 -37.701600   0.001186  -0.000358 -25.109200   0.001318   0.002500 -28.500700  -1.815320   3.337880 -36.885700  -0.000379  -0.001374 -24.565900  -0.003617  -0.001101 -35.111500  -2.288760   3.250830 -52.764900   0.001860  -0.000481 -35.141400   0.000000  -0.003726   1.137550 -14.124800   5.838190  22.017200 -18.440200  98.205400 -33.476200  -9.243950  47.042600  18.729400  -7.796870  21.246700 -51.561600  36.627500  68.448900  17.415500   0.000322  -0.001825   3.707770   0.003819   0.001376   8.094780   1.584750  10.914000   6.744870   0.009267  -0.002027   4.721410   0.011147  -0.001985   5.957060   1.174920  10.965200   6.067650   0.013504   0.000000   4.041050   0.008849   0.001083   3.714320   0.740532  11.002300   3.782100   0.011435   0.007579   2.518880  -0.002111   0.005268   5.302290   1.047710  10.977700   8.099330   0.010307  -0.009001   5.394160   0.000269  -0.009401   2.333010   7.959020  -3.678240   0.676967   0.001757   8.176540  -3.617130  -3.204380   3.442180  -0.000000   0.000000   0.000000   0.602708   7.043970  -3.182780   0.913188   2.541260 -11.511500  -2.204910  -4.596490   0.858350  -0.000000   0.000000  -0.000000
  0.322395  89.549000  -1.367000  -0.679126  -5.395860   5.215130  -0.917633   4.577940   3.376310  -2.114870   9.093430   6.858640   1.431200  -0.851947   0.020926   2.352200  -1.724390  -1.417380  -9.211750  -1.000090  -5.942780 -68.687800  15.557800  -9.120430  -0.566177  -0.625192  -9.080490   6.463220  -8.063970   3.921870  42.165700  30.998500 -60.114000 -25.432000   0.003692   0.001825  -7.716020  -0.000602   0.000139 -36.593800   2.243690  -3.017570 -29.988000  -0.002734   0.001942 -20.991500  -0.000436   0.002327 -28.598600  -0.877715   1.609320 -37.706000   0.001171  -0.000376 -25.112200   0.001322   0.002527 -28.502200  -1.794660   3.299670 -36.893100  -0.000441  -0.001362 -24.570800  -0.003804  -0.001113 -35.121300  -2.264810   3.215260 -52.779700   0.001784  -0.000406 -35.151300  -0.000058  -0.003663   1.301950 -13.842100   6.054660  19.596300  -0.009064  89.976400 -33.841200  -9.854090  46.504300  18.610500  -7.882820  21.101300 -51.577900  36.897500  68.858400  17.645600   0.001669  -0.001874   3.822800   0.003933   0.001268   8.309880   1.561190  10.583400   6.912630   0.009265  -0.003790   4.838850   0.009690  -0.003811   6.207670   1.163210  10.633300   6.310710   0.013511  -0.000000   4.202920   0.008848   0.000913   4.085970   0.739136  10.669200   4.147090   0.009851   0.007665   2.761970  -0.002038   0.005382   5.639530   1.039960  10.644500   8.593210   0.010293  -0.009142   5.723080   0.000246  -0.009538   2.317370   7.983700  -3.647160   0.689198   0.014053   8.273030  -3.597600  -3.232170   3.484740   0.000000   0.000000  -0.000000   0.600009   7.041390  -3.113700   0.899367   2.542310 -11.441200  -2.185210  -4.561850   0.901262   0.000000   0.000000   0.000000
  0.328427  89.555100  -1.384400  -0.709498  -5.415070   5.018120  -0.907776   4.578060   3.397780  -2.097100   9.093290   6.900930   1.474070  -0.857996   0.020937   2.423120  -1.736630  -1.497120  -9.210960  -0.990951  -5.974560 -68.583600  15.669400  -9.058900  -0.586019  -0.645728  -9.149620   6.399990  -8.019480   3.896990  42.186100  31.031900 -60.179200 -25.417600   0.003694   0.001813  -7.708800  -0.000591   0.000144 -36.591800   2.272330  -3.056870 -29.988500  -0.002790   0.002039 -20.991900  -0.000485   0.002305 -28.599700  -0.857044   1.570840 -37.706600   0.001151  -0.000392 -25.112600   0.001324   0.002556 -28.504300  -1.768850   3.252190 -36.894200  -0.000506  -0.001346 -24.571500  -0.003991  -0.001123 -35.125900  -2.232350   3.169190 -52.781800   0.001708  -0.000331 -35.152700  -0.000148  -0.003598   1.476810 -13.504900   6.279160  19.654900 -19.111100  96.796600 -34.008100 -10.416700  45.799700  18.476500  -7.964380  20.625300 -51.738500  37.199900  69.146200  17.922900   0.004076  -0.002021   3.961450   0.004051   0.001159   8.636390   1.414670   9.296510   7.153080   0.009252  -0.005754   5.007170   0.006325  -0.005873   6.584310   1.076420   9.341240   6.666300   0.013512  -0.000000   4.439750   0.008838   0.000749   4.435800   0.726488   9.374540   4.490020   0.006480   0.007750   2.990360  -0.001967   0.005495   5.979510   0.981475   9.351580   9.079200   0.010194  -0.009278   6.046750   0.000174  -0.009672   2.303010   7.998890  -3.625270   0.702783   0.042237   8.376110  -3.574630  -3.279160   3.549130   0.000000   0.000000  -0.000000   0.598448   7.038780  -3.046420   0.885680   2.543410 -11.366000  -2.164420  -4.527050   0.967292  -0.000000   0.000000   0.000000
  0.335768  89.554500  -1.403040  -0.750589  -5.421080   4.807800  -0.902209   4.549060   3.409300  -2.085080   9.035310   6.922570   1.534860  -0.845618   0.020938   2.522870  -1.711170  -1.595970  -9.185280  -0.941953  -5.924050 -68.472900  15.857200  -9.021300  -0.604137  -0.670299  -9.219350   6.372650  -7.975800   3.872330  42.219400  31.039900 -60.137600 -25.372900   0.003696   0.001814  -7.686420  -0.000589   0.000137 -36.552100   2.301110  -3.101880 -29.957500  -0.002845   0.002134 -20.970200  -0.000537   0.002280 -28.601100  -0.829181   1.520120 -37.642700   0.001128  -0.000405 -25.070000   0.001324   0.002586 -28.507000  -1.734460   3.189280 -36.857200  -0.000575  -0.001326 -24.546900  -0.004177  -0.001131 -35.104300  -2.182350   3.101140 -52.745000   0.001630  -0.000257 -35.128300  -0.000206  -0.003527   1.636880 -13.095200   6.480600  18.901600 -19.398600  96.159900 -33.966800 -10.742100  44.910600  18.270200  -7.747700  19.622200 -51.976000  37.457000  69.202400  18.123400   0.007428  -0.002688   4.061730   0.004166   0.001048   9.263580   0.938477   5.803490   7.616370   0.001710  -0.007701   5.331470   0.000154  -0.007919   7.315930   0.737499   5.833060   7.355140   0.002444  -0.000010   4.898520   0.001550   0.000676   4.636750   0.506176   5.860990   4.666590   0.000914   0.007836   3.107950  -0.001932   0.005606   6.212180   0.660040   5.845920   9.370040   0.003549  -0.009407   6.240440  -0.000783  -0.009801   2.295400   7.999270  -3.624460   0.714969   0.093499   8.477100  -3.548740  -3.327140   3.649040   0.000000   0.000000  -0.000000   0.604400   6.981290  -3.018620   0.872554   2.592840 -11.278300  -2.147320  -4.493250   1.074150  -0.000000   0.000000   0.000000
